<svg width="1233" height="331" viewBox="0 0 1233 331" fill="none" xmlns="http://www.w3.org/2000/svg">
<path d="M109.156 295.341C109.43 295.616 202.083 341.897 276.707 253.714C276.707 253.714 349.723 169.223 273.991 74.4663C273.01 73.2315 271.276 72.9 269.895 73.6431C254.297 82.0578 170.305 133.964 211.36 245.448C273.227 214.258 278.031 141.155 277.791 141.155C292.282 203.054 246.903 244.133 247.177 244.407C198.797 291.511 140.854 275.356 141.128 275.631C38.765 251.256 51.7501 154.852 51.7501 155.126C57.5238 93.7767 107.091 67.595 107.091 67.595C65.4084 121.376 74.4341 174.574 74.4341 174.574C75.5523 179.959 76.8759 184.99 78.3593 189.7C78.8157 189.506 180.597 146.975 155.893 26.2988C155.574 24.7325 154.148 23.6349 152.55 23.7035C134.613 24.4696 35.8439 35.1023 24.4106 151.571C24.422 151.285 11.3114 254.537 109.156 295.341Z" fill="#ECE28C"/>
<path d="M268.115 231.479C268.309 231.102 268.515 230.736 268.709 230.347C268.96 229.856 269.199 229.364 269.439 228.873C269.485 228.77 269.53 228.678 269.587 228.575C273.798 219.898 276.559 210.763 278.362 202.748C279.583 197.775 280.838 191.132 281.397 183.529C281.637 180.877 281.694 179.322 281.694 179.322C282.036 169.924 281.123 151.594 277.803 141.144V169.967L257.709 210.84L223.683 252.33C223.683 252.33 174.892 266.713 173.454 266.713C172.016 266.713 116.676 255.829 116.676 255.829L87.3052 249.461C87.3052 249.461 143.814 301.222 214.578 277.135C214.692 277.135 249.676 265.79 267.807 232.062C267.807 232.074 267.807 232.074 267.807 232.074C267.91 231.879 268.013 231.685 268.115 231.479Z" fill="#FBF8D2"/>
<path d="M158.081 22.906C158.081 22.906 70.1951 32.0687 24.8335 148.414C24.4228 148.003 12.9438 154.988 12.9438 154.988L37.9556 79.816L75.2678 39.9718L116.676 19.4266C116.676 19.4266 156.031 10.3945 158.085 10.3945C160.139 10.3945 166.289 19.8382 166.289 19.8382L168.48 24.5144L158.081 22.906Z" fill="#FBF8D2"/>
<path d="M272.219 72.1559C272.219 72.1559 202.595 113.96 211.383 244.944C211.383 244.533 204.411 255.211 204.411 255.211L189.247 223.576C189.247 223.576 192.932 159.494 192.932 158.259C192.932 157.024 213.836 118.826 215.068 115.945C216.301 113.064 240.08 81.0286 242.123 78.9706C244.165 76.9127 263.848 66.2342 263.848 66.2342H277.381L272.219 72.1559Z" fill="#FBF8D2"/>
<path d="M107.092 67.6412C107.092 67.6412 95.3448 119.226 112.426 175.236L87.2831 200.539L72.2556 201.568L58.9167 148.358L73.6819 103.381L93.1709 81.0407C93.1709 81.0407 100.086 72.5002 107.092 67.6412Z" fill="#D7C867"/>
<path d="M326.583 127.538C326.332 126.589 326.172 126.086 326.172 126.086C313.324 76.6496 293.276 58.9284 285.585 49.8162C280.142 43.3794 272.029 44.4884 265.491 48.1699C240.479 62.2783 217.111 90.2435 217.111 90.4836C150.565 171.372 188.938 253.622 189.11 253.976C184.808 255.165 180.301 256.183 175.565 256.995C175.337 256.995 117.087 266.015 87.2941 211.068C157.754 178.838 172.005 119.444 172.211 119.649C184.454 88.3913 183.37 54.5838 180.894 33.7871C180.323 23.4745 178.155 14.2251 177.186 10.5094C177.072 9.96062 176.923 9.42327 176.752 8.89735C176.729 8.80588 176.718 8.76015 176.718 8.76015V8.78302C174.926 3.66101 170.065 0.0367346 164.463 0.00243543C127.95 -0.226226 93.8551 15.7229 93.8551 15.7229C37.7727 45.2659 15.0887 89.1917 5.98317 122.382C-1.28529 148.884 0.10678 168.537 0.10678 168.537C0.540377 183.4 2.66272 196.937 5.98317 209.284C27.7885 290.219 102.093 318.859 102.333 318.619C219.039 361.893 286.829 277.814 286.829 278.077C309.501 253.039 321.094 226.834 326.594 203.362C335.517 165.301 328.431 134.455 326.583 127.538ZM276.708 253.713C202.095 341.896 109.43 295.615 109.156 295.341C11.3118 254.536 24.4225 151.285 24.4225 151.559C35.8443 35.0905 134.625 24.4577 152.562 23.6917C154.159 23.6231 155.586 24.7207 155.905 26.287C180.597 146.974 78.8275 189.505 78.3711 189.688C76.8877 184.966 75.5641 179.947 74.4459 174.562C74.4459 174.562 65.4202 121.376 107.103 67.5832C107.103 67.5832 57.5356 93.7649 51.7619 155.115C51.7619 154.84 38.7768 251.244 141.14 275.619C140.866 275.345 198.808 291.499 247.189 244.395C246.915 244.121 292.283 203.042 277.803 141.143C278.043 141.143 273.239 214.246 211.371 245.436C170.305 133.963 254.297 82.046 269.907 73.6313C271.288 72.8881 273.022 73.2197 274.003 74.4545C349.723 169.212 276.708 253.713 276.708 253.713Z" fill="#00943F"/>
<path d="M421.505 152.395C412.861 152.395 405.503 150.795 399.431 147.594C393.43 144.393 388.858 139.911 385.715 134.15C382.572 128.388 381 121.666 381 113.983C381 108.008 381.929 102.638 383.786 97.8718C385.715 93.0348 388.465 88.909 392.037 85.4946C395.609 82.0091 399.967 79.3772 405.11 77.5989C410.325 75.7494 416.219 74.8247 422.791 74.8247C426.363 74.8247 430.007 75.1804 433.721 75.8917C437.436 76.5319 441.08 77.7767 444.651 79.6262C446.509 80.4798 447.759 81.689 448.402 83.254C449.116 84.7477 449.331 86.3482 449.045 88.0554C448.831 89.6915 448.223 91.2209 447.223 92.6435C446.294 93.995 445.009 94.9198 443.366 95.4177C441.722 95.8445 439.865 95.5955 437.793 94.6708C435.65 93.6749 433.328 92.9281 430.828 92.4301C428.328 91.8611 425.685 91.5765 422.898 91.5765C418.112 91.5765 414.112 92.4301 410.897 94.1373C407.754 95.8445 405.396 98.3697 403.824 101.713C402.253 105.056 401.467 109.146 401.467 113.983C401.467 121.239 403.253 126.716 406.825 130.415C410.397 134.114 415.683 135.964 422.684 135.964C424.827 135.964 427.149 135.75 429.649 135.323C432.221 134.897 434.793 134.292 437.365 133.509L433.721 140.872V122.626H426.22C423.791 122.626 421.898 122.021 420.541 120.812C419.255 119.603 418.612 117.896 418.612 115.691C418.612 113.485 419.255 111.814 420.541 110.676C421.898 109.466 423.791 108.862 426.22 108.862H442.08C444.58 108.862 446.473 109.538 447.759 110.889C449.116 112.17 449.795 114.055 449.795 116.544V140.125C449.795 142.259 449.331 144.073 448.402 145.566C447.545 147.06 446.152 148.127 444.223 148.767C440.865 149.906 437.222 150.795 433.293 151.435C429.364 152.075 425.435 152.395 421.505 152.395Z" fill="#00943F"/>
<path d="M466.519 152.182C464.304 152.182 462.447 151.684 460.947 150.688C459.447 149.621 458.518 148.198 458.161 146.42C457.804 144.571 458.125 142.508 459.125 140.232L485.807 83.0406C487.093 80.2664 488.665 78.2391 490.522 76.9587C492.451 75.6783 494.63 75.0381 497.059 75.0381C499.488 75.0381 501.595 75.6783 503.381 76.9587C505.239 78.2391 506.846 80.2664 508.203 83.0406L534.885 140.232C536.028 142.508 536.421 144.571 536.064 146.42C535.778 148.27 534.885 149.692 533.385 150.688C531.956 151.684 530.17 152.182 528.027 152.182C525.17 152.182 522.955 151.542 521.384 150.261C519.883 148.981 518.526 146.918 517.312 144.073L511.525 130.522L519.026 135.964H474.877L482.485 130.522L476.699 144.073C475.413 146.918 474.091 148.981 472.734 150.261C471.377 151.542 469.305 152.182 466.519 152.182ZM496.845 96.4847L484.414 126.04L481.414 120.919H512.597L509.596 126.04L497.059 96.4847H496.845ZM497.059 174.539C494.13 174.539 491.88 173.756 490.308 172.191C488.736 170.698 487.95 168.599 487.95 165.896C487.95 163.122 488.736 160.988 490.308 159.494C491.88 158.072 494.13 157.36 497.059 157.36C500.059 157.36 502.31 158.072 503.81 159.494C505.381 160.988 506.167 163.122 506.167 165.896C506.167 168.67 505.381 170.804 503.81 172.298C502.31 173.792 500.059 174.539 497.059 174.539Z" fill="#00943F"/>
<path d="M579.261 152.395C571.617 152.395 564.902 150.795 559.115 147.594C553.329 144.322 548.828 139.769 545.614 133.936C542.47 128.103 540.899 121.31 540.899 113.557C540.899 107.724 541.792 102.424 543.578 97.6584C545.435 92.8925 548.043 88.8023 551.4 85.3879C554.829 81.9736 558.901 79.3772 563.616 77.5989C568.331 75.7494 573.546 74.8247 579.261 74.8247C586.905 74.8247 593.584 76.4252 599.299 79.6262C605.086 82.8272 609.587 87.3441 612.801 93.177C616.016 98.9388 617.623 105.732 617.623 113.557C617.623 119.39 616.695 124.689 614.837 129.455C613.051 134.221 610.444 138.346 607.015 141.832C603.657 145.246 599.621 147.878 594.906 149.728C590.191 151.506 584.976 152.395 579.261 152.395ZM579.261 135.964C583.047 135.964 586.262 135.074 588.905 133.296C591.548 131.518 593.584 128.957 595.013 125.614C596.442 122.27 597.156 118.251 597.156 113.557C597.156 106.514 595.585 101.037 592.441 97.1249C589.298 93.2126 584.905 91.2564 579.261 91.2564C575.546 91.2564 572.332 92.1456 569.617 93.9239C566.974 95.6311 564.938 98.1563 563.509 101.5C562.08 104.772 561.366 108.791 561.366 113.557C561.366 120.599 562.937 126.112 566.081 130.095C569.224 134.007 573.617 135.964 579.261 135.964Z" fill="#00943F"/>
<path d="M698.074 152.395C689.716 152.395 682.536 150.795 676.536 147.594C670.535 144.393 665.927 139.876 662.712 134.043C659.569 128.21 657.997 121.381 657.997 113.557C657.997 107.724 658.89 102.424 660.676 97.6584C662.534 92.8925 665.177 88.8023 668.606 85.3879C672.106 81.9736 676.321 79.3772 681.25 77.5989C686.251 75.7494 691.859 74.8247 698.074 74.8247C701.36 74.8247 704.754 75.2159 708.254 75.9984C711.826 76.7097 714.969 77.8123 717.684 79.3061C719.684 80.3731 721.077 81.7246 721.863 83.3607C722.649 84.9967 722.899 86.6683 722.613 88.3755C722.399 90.0827 721.792 91.6121 720.792 92.9636C719.791 94.3151 718.505 95.2399 716.934 95.7378C715.362 96.1646 713.648 95.9156 711.79 94.9909C709.647 93.995 707.504 93.2482 705.361 92.7502C703.289 92.1812 701.11 91.8966 698.824 91.8966C694.395 91.8966 690.68 92.7502 687.68 94.4574C684.751 96.0935 682.536 98.512 681.036 101.713C679.536 104.914 678.786 108.862 678.786 113.557C678.786 118.251 679.536 122.235 681.036 125.507C682.536 128.708 684.751 131.162 687.68 132.869C690.68 134.505 694.395 135.323 698.824 135.323C700.682 135.323 702.682 135.11 704.825 134.683C706.968 134.185 709.076 133.438 711.147 132.442C713.29 131.518 715.184 131.269 716.827 131.696C718.541 132.122 719.899 132.976 720.899 134.256C721.97 135.537 722.649 137.031 722.935 138.738C723.22 140.374 722.97 142.01 722.185 143.646C721.47 145.282 720.184 146.598 718.327 147.594C715.827 149.088 712.719 150.261 709.004 151.115C705.361 151.968 701.718 152.395 698.074 152.395Z" fill="#00943F"/>
<path d="M743.56 152.182C740.417 152.182 737.988 151.328 736.273 149.621C734.559 147.843 733.701 145.353 733.701 142.152V85.0679C733.701 81.7957 734.559 79.3061 736.273 77.5989C737.988 75.8917 740.417 75.0381 743.56 75.0381C746.775 75.0381 749.204 75.8917 750.847 77.5989C752.561 79.3061 753.418 81.7957 753.418 85.0679V105.021H784.601V85.0679C784.601 81.7957 785.423 79.3061 787.066 77.5989C788.78 75.8917 791.245 75.0381 794.46 75.0381C797.603 75.0381 799.996 75.8917 801.639 77.5989C803.354 79.3061 804.211 81.7957 804.211 85.0679V142.152C804.211 145.353 803.354 147.843 801.639 149.621C799.996 151.328 797.603 152.182 794.46 152.182C791.245 152.182 788.78 151.328 787.066 149.621C785.423 147.843 784.601 145.353 784.601 142.152V121.132H753.418V142.152C753.418 145.353 752.597 147.843 750.954 149.621C749.311 151.328 746.846 152.182 743.56 152.182Z" fill="#00943F"/>
<path d="M821.477 152.182C819.263 152.182 817.406 151.684 815.905 150.688C814.405 149.621 813.476 148.198 813.119 146.42C812.762 144.571 813.084 142.508 814.084 140.232L840.766 83.0406C842.052 80.2664 843.623 78.2391 845.481 76.9587C847.41 75.6783 849.588 75.0381 852.017 75.0381C854.446 75.0381 856.554 75.6783 858.34 76.9587C860.197 78.2391 861.804 80.2664 863.162 83.0406L889.844 140.232C890.987 142.508 891.38 144.571 891.023 146.42C890.737 148.27 889.844 149.692 888.344 150.688C886.915 151.684 885.129 152.182 882.986 152.182C880.128 152.182 877.914 151.542 876.342 150.261C874.842 148.981 873.484 146.918 872.27 144.073L866.484 130.522L873.985 135.964H829.836L837.444 130.522L831.657 144.073C830.372 146.918 829.05 148.981 827.693 150.261C826.335 151.542 824.264 152.182 821.477 152.182ZM851.803 96.4847L839.373 126.04L836.372 120.919H867.555L864.555 126.04L852.017 96.4847H851.803ZM844.195 69.0629C842.909 70.2722 841.623 70.9479 840.337 71.0902C839.051 71.2325 837.908 70.9479 836.908 70.2366C835.908 69.5253 835.265 68.6006 834.979 67.4624C834.765 66.3243 835.122 65.0439 836.051 63.6212L841.409 55.7255C842.837 53.6626 844.373 52.2044 846.017 51.3508C847.731 50.4972 849.696 50.0704 851.91 50.0704C853.41 50.0704 854.768 50.2482 855.982 50.6039C857.268 50.9596 858.411 51.5642 859.411 52.4178C860.483 53.2003 861.483 54.3028 862.412 55.7255L867.769 63.6212C868.698 65.0439 869.02 66.3243 868.734 67.4624C868.52 68.6006 867.912 69.5253 866.912 70.2366C865.983 70.9479 864.84 71.2325 863.483 71.0902C862.197 70.9479 860.911 70.2722 859.625 69.0629L851.91 61.2739L844.195 69.0629Z" fill="#00943F"/>
<path d="M918.84 152.182C915.697 152.182 913.268 151.328 911.553 149.621C909.839 147.843 908.981 145.389 908.981 142.259V92.0033H892.158C889.515 92.0033 887.479 91.3276 886.05 89.976C884.692 88.5534 884.014 86.5616 884.014 84.0009C884.014 81.3689 884.692 79.3772 886.05 78.0257C887.479 76.6742 889.515 75.9984 892.158 75.9984H945.522C948.165 75.9984 950.166 76.6742 951.523 78.0257C952.952 79.3772 953.666 81.3689 953.666 84.0009C953.666 86.5616 952.952 88.5534 951.523 89.976C950.166 91.3276 948.165 92.0033 945.522 92.0033H928.698V142.259C928.698 145.389 927.877 147.843 926.234 149.621C924.591 151.328 922.126 152.182 918.84 152.182Z" fill="#00943F"/>
<path d="M1023.82 152.182C1021.11 152.182 1018.89 151.613 1017.18 150.475C1015.53 149.337 1014.14 147.523 1013 145.033L987.066 88.0554C985.923 85.5658 985.565 83.3251 985.994 81.3334C986.423 79.3416 987.423 77.8123 988.994 76.7453C990.566 75.6072 992.531 75.0381 994.888 75.0381C997.817 75.0381 999.996 75.6783 1001.42 76.9587C1002.92 78.2391 1004.21 80.1241 1005.28 82.6138L1027.14 132.976H1021.14L1043 82.5071C1044.07 80.0174 1045.36 78.1679 1046.86 76.9587C1048.36 75.6783 1050.47 75.0381 1053.18 75.0381C1055.4 75.0381 1057.25 75.6072 1058.75 76.7453C1060.25 77.8123 1061.18 79.3416 1061.54 81.3334C1061.97 83.3251 1061.61 85.5658 1060.47 88.0554L1034.43 145.033C1033.36 147.523 1032 149.337 1030.36 150.475C1028.71 151.613 1026.54 152.182 1023.82 152.182Z" fill="#00943F"/>
<path d="M1080.21 152.182C1077.06 152.182 1074.63 151.328 1072.92 149.621C1071.2 147.843 1070.35 145.353 1070.35 142.152V85.0679C1070.35 81.7957 1071.2 79.3061 1072.92 77.5989C1074.63 75.8917 1077.06 75.0381 1080.21 75.0381C1083.42 75.0381 1085.85 75.8917 1087.49 77.5989C1089.21 79.3061 1090.06 81.7957 1090.06 85.0679V142.152C1090.06 145.353 1089.24 147.843 1087.6 149.621C1085.96 151.328 1083.49 152.182 1080.21 152.182Z" fill="#00943F"/>
<path d="M1114.02 151.222C1110.66 151.222 1108.09 150.368 1106.3 148.661C1104.59 146.882 1103.73 144.357 1103.73 141.085V86.1348C1103.73 82.8627 1104.59 80.3731 1106.3 78.6659C1108.09 76.8876 1110.66 75.9984 1114.02 75.9984H1150.34C1152.91 75.9984 1154.84 76.6386 1156.13 77.919C1157.41 79.1994 1158.06 81.0488 1158.06 83.4674C1158.06 85.957 1157.41 87.8776 1156.13 89.2291C1154.84 90.5095 1152.91 91.1497 1150.34 91.1497H1122.59V105.447H1147.98C1150.49 105.447 1152.38 106.088 1153.66 107.368C1155.02 108.648 1155.7 110.533 1155.7 113.023C1155.7 115.513 1155.02 117.398 1153.66 118.678C1152.38 119.959 1150.49 120.599 1147.98 120.599H1122.59V136.07H1150.34C1152.91 136.07 1154.84 136.746 1156.13 138.098C1157.41 139.378 1158.06 141.227 1158.06 143.646C1158.06 146.136 1157.41 148.021 1156.13 149.301C1154.84 150.581 1152.91 151.222 1150.34 151.222H1114.02ZM1132.55 174.539C1129.63 174.539 1127.37 173.756 1125.8 172.191C1124.23 170.698 1123.45 168.599 1123.45 165.896C1123.45 163.122 1124.23 160.988 1125.8 159.494C1127.37 158.072 1129.63 157.36 1132.55 157.36C1135.55 157.36 1137.8 158.072 1139.31 159.494C1140.88 160.988 1141.66 163.122 1141.66 165.896C1141.66 168.67 1140.88 170.804 1139.31 172.298C1137.8 173.792 1135.55 174.539 1132.55 174.539ZM1125.05 68.6361C1123.91 69.8454 1122.62 70.4856 1121.2 70.5567C1119.77 70.6278 1118.48 70.3077 1117.34 69.5964C1116.19 68.8851 1115.44 67.9248 1115.09 66.7155C1114.8 65.5063 1115.12 64.2614 1116.05 62.981L1121.84 54.8719C1123.27 52.8802 1124.84 51.4219 1126.55 50.4972C1128.34 49.5725 1130.34 49.1101 1132.55 49.1101C1134.77 49.1101 1136.77 49.5725 1138.55 50.4972C1140.34 51.4219 1141.91 52.8802 1143.27 54.8719L1149.06 62.981C1150.06 64.2614 1150.38 65.5063 1150.02 66.7155C1149.66 67.9248 1148.91 68.8851 1147.77 69.5964C1146.7 70.3077 1145.45 70.6278 1144.02 70.5567C1142.59 70.4856 1141.27 69.8454 1140.06 68.6361L1132.55 60.4203L1125.05 68.6361Z" fill="#00943F"/>
<path d="M1197.72 152.182C1194.58 152.182 1192.15 151.328 1190.43 149.621C1188.72 147.843 1187.86 145.389 1187.86 142.259V92.0033H1171.04C1168.4 92.0033 1166.36 91.3276 1164.93 89.976C1163.57 88.5534 1162.89 86.5616 1162.89 84.0009C1162.89 81.3689 1163.57 79.3772 1164.93 78.0257C1166.36 76.6742 1168.4 75.9984 1171.04 75.9984H1224.4C1227.05 75.9984 1229.05 76.6742 1230.4 78.0257C1231.83 79.3772 1232.55 81.3689 1232.55 84.0009C1232.55 86.5616 1231.83 88.5534 1230.4 89.976C1229.05 91.3276 1227.05 92.0033 1224.4 92.0033H1207.58V142.259C1207.58 145.389 1206.76 147.843 1205.11 149.621C1203.47 151.328 1201.01 152.182 1197.72 152.182Z" fill="#00943F"/>
<path d="M879.823 70.4093C880.961 70.2631 881.993 69.6052 882.918 68.4357L890.708 58.7866C891.776 57.544 892.274 56.3013 892.203 55.0586C892.131 53.8159 891.669 52.756 890.815 51.8788C890.033 50.9285 889.036 50.2706 887.827 49.9051C886.688 49.5397 885.55 49.5762 884.412 50.0148C883.273 50.3803 882.313 51.2575 881.53 52.6463L875.767 63.6111C875.055 65 874.842 66.2427 875.127 67.3392C875.411 68.4357 875.98 69.2763 876.834 69.8611C877.759 70.3728 878.755 70.5555 879.823 70.4093Z" fill="#00943F"/>
<path d="M622.124 280.839H611.267L597.539 239.724H608.326L616.591 268.582H616.731L625.066 239.724H635.922L622.124 280.839Z" fill="#F7F239"/>
<path d="M622.334 281.119H611.127L597.188 239.444H608.535L616.66 267.811L624.855 239.444H636.272L622.334 281.119ZM611.477 280.559H621.913L635.502 239.934H625.205L616.94 268.792H616.38L608.115 239.934H597.889L611.477 280.559Z" fill="#FEA621"/>
<path d="M659.385 239.724H648.879V280.839H659.385V239.724Z" fill="#F7F239"/>
<path d="M659.597 281.119H648.601V239.444H659.597V281.119ZM649.091 280.559H659.037V239.934H649.091V280.559Z" fill="#FEA621"/>
<path d="M700.641 280.839L685.021 255.834L684.881 255.904L685.162 280.839H675.146V239.724H684.181L700.081 265.57L700.151 265.43L699.73 239.724H709.816V280.839H700.641Z" fill="#F7F239"/>
<path d="M710.026 281.119H700.501L700.431 280.979L685.161 256.534L685.442 281.119H674.865V239.444H684.321L699.94 264.799L699.45 239.444H710.026V281.119V281.119ZM700.781 280.559H709.466V239.934H699.94L700.431 265.5L700.01 265.92L684.041 239.934H675.426V280.559H684.881L684.601 255.694L685.091 255.484L700.781 280.559Z" fill="#FEA621"/>
<path d="M752.122 280.839L750.091 274.885H735.803L733.631 280.839H722.354L738.884 239.724H747.149L763.539 280.839H752.122ZM743.087 252.542H742.947L738.744 266.62H747.36L743.087 252.542Z" fill="#F7F239"/>
<path d="M763.89 281.119H751.913L749.881 275.165H736.013L733.842 281.119H722.005L738.745 239.444H747.36L747.43 239.584L763.89 281.119ZM752.333 280.559H763.119L746.94 239.934H739.025L722.705 280.559H733.421L735.593 274.605H750.232L752.333 280.559ZM747.71 266.83H738.394L742.807 252.262H743.367L747.71 266.83ZM739.095 266.27H747.01L743.017 253.102L739.095 266.27Z" fill="#FEA621"/>
<path d="M786.093 248.9V255.904H798.07V265.15H786.093V280.839H776.077V239.724H798.491V248.9H786.093Z" fill="#F7F239"/>
<path d="M786.372 281.119H775.796V239.444H798.77V249.18H786.372V255.624H798.279V265.36H786.372V281.119V281.119ZM776.286 280.559H785.812V264.869H797.719V256.184H785.812V248.69H798.209V240.005H776.286V280.559V280.559Z" fill="#FEA621"/>
<path d="M847.728 275.516C843.526 279.578 838.343 281.61 832.319 281.61C826.436 281.61 821.392 279.578 817.12 275.586C812.777 271.524 810.676 266.621 810.676 260.737C810.676 257.655 811.236 254.714 812.287 251.912C812.847 250.441 813.758 248.9 814.949 247.289C819.221 241.686 825.035 238.884 832.319 238.884C838.343 238.884 843.456 240.915 847.658 245.048C851.861 249.18 854.032 254.223 854.032 260.247C854.102 266.34 852.001 271.384 847.728 275.516ZM840.514 251.842C838.343 249.39 835.681 248.13 832.389 248.13C829.097 248.13 826.365 249.32 824.264 251.702C822.233 254.013 821.182 256.815 821.182 260.107C821.182 263.469 822.233 266.34 824.334 268.652C826.506 271.103 829.237 272.294 832.529 272.294C835.751 272.294 838.413 271.033 840.514 268.582C842.545 266.27 843.526 263.469 843.526 260.177C843.596 257.025 842.545 254.223 840.514 251.842Z" fill="#F7F239"/>
<path d="M832.319 281.89C826.366 281.89 821.183 279.858 816.98 275.796C812.637 271.733 810.466 266.69 810.466 260.737C810.466 257.585 811.026 254.643 812.077 251.842C812.637 250.371 813.548 248.76 814.809 247.149C819.081 241.475 825.035 238.604 832.389 238.604C838.483 238.604 843.736 240.705 847.939 244.837C852.211 248.97 854.382 254.153 854.382 260.247C854.382 266.34 852.211 271.523 847.939 275.656C843.666 279.788 838.413 281.89 832.319 281.89ZM832.389 239.234C825.175 239.234 819.431 242.036 815.229 247.569C814.038 249.18 813.128 250.651 812.567 252.122C811.517 254.853 810.956 257.725 810.956 260.807C810.956 266.55 813.128 271.453 817.33 275.446C821.463 279.368 826.506 281.399 832.319 281.399C838.273 281.399 843.386 279.368 847.518 275.376C851.651 271.313 853.822 266.27 853.822 260.317C853.822 254.363 851.721 249.32 847.518 245.328C843.456 241.265 838.343 239.234 832.389 239.234ZM832.529 272.644C829.167 272.644 826.296 271.383 824.124 268.862C822.023 266.48 820.902 263.539 820.902 260.106C820.902 256.744 821.953 253.873 824.054 251.491C826.226 249.04 829.027 247.849 832.389 247.849C835.681 247.849 838.483 249.11 840.724 251.631C842.755 254.013 843.806 256.885 843.806 260.247C843.806 263.539 842.755 266.41 840.724 268.792C838.553 271.383 835.821 272.644 832.529 272.644ZM832.459 248.409C829.237 248.409 826.576 249.6 824.545 251.912C822.513 254.153 821.533 256.885 821.533 260.177C821.533 263.469 822.583 266.27 824.615 268.582C826.716 270.963 829.377 272.154 832.669 272.154C835.751 272.154 838.413 270.963 840.444 268.582C842.405 266.34 843.386 263.539 843.386 260.387C843.386 257.165 842.405 254.363 840.444 252.122C838.273 249.67 835.611 248.409 832.459 248.409Z" fill="#FEA621"/>
<path d="M903.343 275.516C899.14 279.578 893.957 281.609 887.934 281.609C882.05 281.609 877.007 279.578 872.734 275.586C868.392 271.523 866.291 266.62 866.291 260.737C866.291 257.655 866.851 254.713 867.901 251.912C868.462 250.441 869.372 248.9 870.563 247.289C874.836 241.685 880.649 238.884 887.934 238.884C893.957 238.884 899.07 240.915 903.273 245.047C907.475 249.18 909.647 254.223 909.647 260.247C909.717 266.34 907.545 271.383 903.343 275.516ZM896.128 251.841C893.957 249.39 891.296 248.129 888.004 248.129C884.712 248.129 881.98 249.32 879.879 251.701C877.847 254.013 876.797 256.814 876.797 260.106C876.797 263.468 877.847 266.34 879.949 268.652C882.12 271.103 884.852 272.294 888.144 272.294C891.366 272.294 894.027 271.033 896.128 268.582C898.16 266.27 899.14 263.468 899.14 260.176C899.21 257.025 898.16 254.223 896.128 251.841Z" fill="#F7F239"/>
<path d="M887.933 281.89C881.98 281.89 876.797 279.859 872.594 275.796C868.252 271.734 866.08 266.621 866.08 260.737C866.08 257.585 866.641 254.644 867.691 251.842C868.252 250.371 869.162 248.76 870.423 247.149C874.696 241.476 880.649 238.604 888.003 238.604C894.097 238.604 899.28 240.705 903.553 244.838C907.825 248.97 909.997 254.153 909.997 260.247C909.997 266.341 907.825 271.524 903.553 275.656C899.28 279.789 894.027 281.89 887.933 281.89ZM888.003 239.234C880.789 239.234 875.046 242.036 870.843 247.569C869.652 249.18 868.742 250.651 868.182 252.122C867.131 254.854 866.571 257.725 866.571 260.807C866.571 266.551 868.742 271.454 872.944 275.446C877.077 279.368 882.12 281.4 887.933 281.4C893.887 281.4 899 279.368 903.133 275.376C907.265 271.314 909.436 266.271 909.436 260.317C909.436 254.363 907.335 249.32 903.203 245.328C899 241.265 893.957 239.234 888.003 239.234ZM888.144 272.644C884.782 272.644 881.91 271.384 879.739 268.862C877.637 266.481 876.517 263.539 876.517 260.107C876.517 256.745 877.567 253.873 879.668 251.492C881.84 249.04 884.641 247.849 888.003 247.849C891.295 247.849 894.097 249.11 896.339 251.632C898.37 254.013 899.42 256.885 899.42 260.247C899.42 263.539 898.37 266.411 896.339 268.792C894.167 271.384 891.436 272.644 888.144 272.644ZM888.003 248.41C884.782 248.41 882.12 249.6 880.089 251.912C878.058 254.153 877.077 256.885 877.077 260.177C877.077 263.469 878.128 266.341 880.159 268.582C882.26 270.963 884.922 272.154 888.214 272.154C891.295 272.154 893.957 270.963 895.988 268.582C897.949 266.341 898.93 263.539 898.93 260.387C898.93 257.165 897.949 254.363 895.988 252.122C893.887 249.671 891.225 248.41 888.003 248.41Z" fill="#FEA621"/>
<path d="M937.524 280.839H923.165V239.724H936.753C938.784 239.724 940.535 239.794 942.076 240.004C943.827 240.215 945.438 240.635 946.909 241.125C950.131 242.316 952.793 244.347 954.964 247.359C957.486 250.861 958.746 255.134 958.746 260.107C958.676 273.975 951.602 280.839 937.524 280.839ZM945.789 252.192C944.038 250.02 941.516 248.97 938.154 248.97H933.601V271.593H938.084C941.516 271.593 944.108 270.543 945.789 268.442C947.33 266.55 948.17 263.819 948.17 260.317C948.17 256.885 947.4 254.153 945.789 252.192Z" fill="#F7F239"/>
<path d="M937.523 281.119H922.884V239.444H936.752C938.783 239.444 940.604 239.514 942.075 239.724C943.826 239.934 945.507 240.355 946.908 240.845C950.13 242.036 952.862 244.137 955.033 247.149C957.555 250.721 958.885 255.064 958.885 260.107C958.956 274.045 951.741 281.119 937.523 281.119ZM923.374 280.559H937.523C951.391 280.559 958.465 273.695 958.465 260.177C958.465 255.274 957.204 251.001 954.683 247.569C952.582 244.627 949.92 242.526 946.768 241.405C945.367 240.915 943.756 240.495 942.005 240.285C940.534 240.075 938.713 240.005 936.752 240.005H923.374V280.559V280.559ZM938.153 271.874H933.39V248.69H938.223C941.655 248.69 944.247 249.81 946.068 252.052C947.679 254.083 948.519 256.885 948.519 260.387C948.519 263.959 947.679 266.761 946.068 268.722C944.317 270.753 941.655 271.874 938.153 271.874ZM933.88 271.383H938.153C941.515 271.383 944.037 270.333 945.647 268.302C947.188 266.41 947.959 263.749 947.959 260.317C947.959 256.955 947.188 254.223 945.647 252.332C943.966 250.231 941.445 249.18 938.223 249.18H933.95V271.383H933.88Z" fill="#FEA621"/>
<path d="M992.297 239.724H981.79V280.839H992.297V239.724Z" fill="#F7F239"/>
<path d="M992.507 281.119H981.51V239.444H992.507V281.119ZM982.001 280.559H991.947V239.934H982.001V280.559Z" fill="#FEA621"/>
<path d="M1018.56 239.724H1008.06V280.839H1018.56V239.724Z" fill="#F7F239"/>
<path d="M1018.77 281.119H1007.78V239.444H1018.77V281.119ZM1008.27 280.559H1018.28V239.934H1008.34V280.559H1008.27Z" fill="#FEA621"/>
<path d="M391.895 225.366V200.361H383V195.248H406.884V200.361H397.989V225.366H391.895Z" fill="#1B5A1D"/>
<path d="M409.616 210.517C409.616 207.435 410.106 204.913 411.017 202.812C411.717 201.271 412.628 199.87 413.818 198.68C415.009 197.489 416.27 196.578 417.741 195.948C419.632 195.177 421.803 194.757 424.255 194.757C428.667 194.757 432.239 196.158 434.901 198.89C437.563 201.621 438.893 205.474 438.893 210.377C438.893 215.21 437.563 219.062 434.901 221.794C432.239 224.525 428.737 225.926 424.325 225.926C419.842 225.926 416.27 224.595 413.678 221.864C410.947 219.062 409.616 215.35 409.616 210.517ZM415.849 210.307C415.849 213.739 416.62 216.26 418.231 218.081C419.772 219.832 421.803 220.743 424.255 220.743C426.706 220.743 428.667 219.902 430.208 218.151C431.749 216.4 432.519 213.809 432.519 210.307C432.519 206.875 431.749 204.283 430.278 202.602C428.737 200.921 426.776 200.08 424.255 200.08C421.733 200.08 419.702 200.921 418.231 202.672C416.62 204.283 415.849 206.875 415.849 210.307ZM424.114 192.726L421.873 194.267H417.811L422.293 191.605H425.936L430.418 194.267H426.356L424.114 192.726ZM424.395 189.854C425.095 189.714 425.375 189.504 425.445 189.294C425.445 189.084 425.305 188.944 424.885 188.874C424.325 188.664 423.484 188.594 422.363 188.594C422.223 188.594 422.013 188.593 421.593 188.664C421.173 188.734 420.893 188.734 420.612 188.734L420.402 187.403C420.893 187.333 421.803 187.333 423.134 187.333C426.706 187.333 428.527 187.823 428.597 188.804C428.667 189.714 427.476 190.345 425.095 190.695V190.975H423.204V190.064C423.764 189.994 424.114 189.924 424.395 189.854Z" fill="#1B5A1D"/>
<path d="M443.586 225.366V195.317H449.469L461.797 215.42V195.317H467.47V225.366H461.377L449.259 205.754V225.366H443.586Z" fill="#1B5A1D"/>
<path d="M487.853 214.299V209.256H500.951V221.233C499.69 222.494 497.869 223.545 495.418 224.455C493.036 225.366 490.585 225.856 488.063 225.856C484.912 225.856 482.18 225.226 479.868 223.895C477.557 222.564 475.806 220.673 474.615 218.221C473.425 215.77 472.864 213.108 472.864 210.237C472.864 207.085 473.495 204.353 474.825 201.902C476.156 199.45 478.047 197.629 480.569 196.298C482.53 195.318 484.912 194.827 487.783 194.827C491.495 194.827 494.437 195.598 496.538 197.209C498.64 198.75 499.971 200.921 500.601 203.723L494.577 204.843C494.157 203.372 493.387 202.182 492.196 201.341C491.005 200.501 489.534 200.08 487.783 200.08C485.122 200.08 483.02 200.921 481.479 202.602C479.939 204.283 479.098 206.804 479.098 210.096C479.098 213.669 479.868 216.33 481.479 218.151C483.09 219.902 485.122 220.813 487.713 220.813C488.974 220.813 490.235 220.533 491.566 220.042C492.826 219.552 493.947 218.922 494.857 218.221V214.439H487.853V214.299Z" fill="#1B5A1D"/>
<path d="M537.443 214.299L543.326 216.19C542.416 219.482 540.945 221.934 538.844 223.475C536.742 225.086 534.081 225.856 530.859 225.856C526.866 225.856 523.574 224.525 520.983 221.794C518.391 219.062 517.131 215.35 517.131 210.587C517.131 205.614 518.391 201.692 520.983 198.89C523.574 196.088 526.937 194.757 531.209 194.757C534.921 194.757 537.863 195.878 540.174 198.049C541.575 199.31 542.556 201.201 543.256 203.583L537.233 205.054C536.882 203.513 536.112 202.252 534.991 201.341C533.871 200.431 532.47 200.01 530.859 200.01C528.618 200.01 526.796 200.781 525.466 202.392C524.065 204.003 523.364 206.594 523.364 210.167C523.364 213.949 524.065 216.681 525.396 218.292C526.796 219.902 528.547 220.743 530.719 220.743C532.33 220.743 533.731 220.253 534.851 219.202C536.112 218.151 536.953 216.54 537.443 214.299Z" fill="#1B5A1D"/>
<path d="M547.319 210.517C547.319 207.435 547.809 204.913 548.719 202.812C549.42 201.271 550.33 199.87 551.521 198.68C552.712 197.489 553.973 196.578 555.443 195.948C557.335 195.177 559.506 194.757 561.957 194.757C566.37 194.757 569.942 196.158 572.604 198.89C575.265 201.621 576.596 205.474 576.596 210.377C576.596 215.21 575.265 219.062 572.604 221.794C569.942 224.525 566.44 225.926 562.027 225.926C557.545 225.926 553.973 224.595 551.381 221.864C548.649 219.062 547.319 215.35 547.319 210.517ZM553.622 210.307C553.622 213.739 554.393 216.26 556.004 218.081C557.545 219.832 559.576 220.743 562.027 220.743C564.479 220.743 566.44 219.902 567.981 218.151C569.522 216.4 570.292 213.809 570.292 210.307C570.292 206.875 569.522 204.283 568.051 202.602C566.51 200.921 564.549 200.08 562.027 200.08C559.506 200.08 557.475 200.921 556.004 202.672C554.393 204.283 553.622 206.875 553.622 210.307ZM554.743 193.567L559.086 187.543H564.409L568.681 193.567H564.059L561.677 190.485L559.436 193.567H554.743Z" fill="#1B5A1D"/>
<path d="M581.36 225.366V195.317H587.243L599.571 215.42V195.317H605.244V225.366H599.15L587.033 205.754V225.366H581.36Z" fill="#1B5A1D"/>
<path d="M625.626 214.299V209.256H638.724V221.233C637.463 222.494 635.642 223.545 633.19 224.455C630.809 225.366 628.357 225.856 625.836 225.856C622.684 225.856 619.952 225.226 617.641 223.895C615.33 222.564 613.578 220.673 612.388 218.221C611.197 215.77 610.637 213.108 610.637 210.237C610.637 207.085 611.267 204.353 612.598 201.902C613.929 199.45 615.82 197.629 618.341 196.298C620.303 195.318 622.684 194.827 625.556 194.827C629.268 194.827 632.21 195.598 634.311 197.209C636.412 198.75 637.743 200.921 638.373 203.723L632.35 204.843C631.93 203.372 631.159 202.182 629.968 201.341C628.778 200.501 627.307 200.08 625.556 200.08C622.894 200.08 620.793 200.921 619.252 202.602C617.711 204.283 616.87 206.804 616.87 210.096C616.87 213.669 617.641 216.33 619.252 218.151C620.863 219.902 622.894 220.813 625.486 220.813C626.746 220.813 628.007 220.533 629.338 220.042C630.599 219.552 631.719 218.922 632.63 218.221V214.439H625.626V214.299Z" fill="#1B5A1D"/>
<path d="M662.748 225.366V200.361H653.853V195.248H677.737V200.361H668.842V225.366H662.748Z" fill="#1B5A1D"/>
<path d="M689.574 225.366V212.688L678.577 195.248H685.722L692.796 207.155L699.73 195.248H706.734L695.598 212.758V225.366H689.574Z" fill="#1B5A1D"/>
<path d="M720.744 225.366V195.528H726.837V220.322H741.966V225.366H720.744Z" fill="#1B5A1D"/>
<path d="M772.294 195.317H778.038V199.45C778.038 201.131 777.898 202.462 777.617 203.442C777.337 204.423 776.777 205.263 776.006 206.034C774.746 207.225 772.785 208.065 770.193 208.415V211.147C770.193 214.719 770.053 217.241 769.703 218.782C769.422 220.252 768.792 221.513 767.882 222.564C765.92 224.805 762.839 225.926 758.566 225.926C753.803 225.926 750.441 224.735 748.48 222.354C747.639 221.303 747.079 220.182 746.799 219.062C746.379 217.381 746.239 214.789 746.239 211.427V195.388H752.332V211.707C752.332 214.299 752.402 215.98 752.542 216.75C753.103 219.482 755.064 220.813 758.426 220.813C761.648 220.813 763.469 219.622 763.889 217.171C764.099 216.12 764.169 214.439 764.169 212.058V195.388H770.263V206.104C772.224 205.754 773.625 204.983 774.395 203.933C774.886 203.302 775.096 202.392 775.166 201.131H772.364V195.317H772.294Z" fill="#1B5A1D"/>
<path d="M808.156 195.317H813.899V199.45C813.899 201.131 813.759 202.462 813.479 203.442C813.199 204.423 812.638 205.263 811.868 205.964C811.097 206.664 810.117 207.295 808.926 207.715C808.996 208.555 809.066 209.466 809.066 210.377C809.066 215.209 807.735 218.992 805.144 221.723C802.552 224.455 798.98 225.856 794.568 225.856C790.085 225.856 786.513 224.455 783.921 221.723C781.26 218.992 779.999 215.209 779.999 210.447C779.999 205.404 781.4 201.481 784.201 198.609C786.723 196.018 790.155 194.687 794.568 194.687C798.98 194.687 802.552 196.088 805.214 198.82C806.825 200.501 807.946 202.532 808.576 204.983C810.187 204.283 811.027 202.952 811.027 200.991H808.226V195.317H808.156ZM786.162 210.307C786.162 213.598 786.933 216.19 788.544 218.081C790.015 219.832 792.046 220.743 794.568 220.743C797.089 220.743 799.05 219.902 800.521 218.081C802.062 216.26 802.833 213.669 802.833 210.236C802.833 206.874 802.062 204.283 800.591 202.532C799.12 200.851 797.159 200.01 794.568 200.01C791.976 200.01 789.945 200.851 788.544 202.602C786.933 204.353 786.162 206.944 786.162 210.307Z" fill="#1B5A1D"/>
<path d="M817.051 225.366V195.317H822.934L835.262 215.42V195.317H840.935V225.366H834.841L822.724 205.754V225.366H817.051Z" fill="#1B5A1D"/>
<path d="M861.318 214.299V209.256H874.416V221.233C873.155 222.494 871.334 223.545 868.882 224.455C866.431 225.366 864.05 225.856 861.528 225.856C858.376 225.856 855.644 225.226 853.333 223.895C851.022 222.564 849.271 220.673 848.08 218.221C846.889 215.77 846.329 213.108 846.329 210.237C846.329 207.085 846.959 204.353 848.29 201.902C849.621 199.45 851.512 197.629 854.033 196.298C855.995 195.318 858.376 194.827 861.248 194.827C864.96 194.827 867.902 195.598 870.003 197.209C872.104 198.82 873.435 200.921 874.066 203.723L868.042 204.843C867.622 203.372 866.851 202.182 865.66 201.341C864.47 200.501 862.999 200.08 861.248 200.08C858.586 200.08 856.485 200.921 854.944 202.602C853.403 204.283 852.563 206.804 852.563 210.096C852.563 213.669 853.333 216.33 854.944 218.151C856.555 219.972 858.586 220.813 861.178 220.813C862.439 220.813 863.699 220.533 865.03 220.042C866.361 219.552 867.412 218.922 868.322 218.221V214.439H861.318V214.299Z" fill="#1B5A1D"/>
<path d="M898.441 225.366V200.361H889.545V195.248H913.43V200.361H904.534V225.366H898.441Z" fill="#1B5A1D"/>
<path d="M917.422 225.366V195.317H923.516V207.155H935.423V195.317H941.516V225.366H935.423V212.198H923.516V225.366H917.422Z" fill="#1B5A1D"/>
<path d="M973.735 195.317H979.479V199.45C979.479 201.131 979.339 202.462 979.059 203.442C978.778 204.423 978.218 205.263 977.448 206.034C976.187 207.225 974.226 208.065 971.634 208.415V211.147C971.634 214.719 971.494 217.241 971.144 218.782C970.864 220.252 970.233 221.513 969.323 222.564C967.361 224.805 964.28 225.926 960.007 225.926C955.244 225.926 951.882 224.735 949.921 222.354C949.081 221.303 948.52 220.182 948.24 219.062C947.82 217.381 947.68 214.789 947.68 211.427V195.388H953.773V211.707C953.773 214.299 953.843 215.98 953.983 216.75C954.544 219.482 956.505 220.813 959.867 220.813C963.089 220.813 964.91 219.622 965.33 217.171C965.54 216.12 965.61 214.439 965.61 212.058V195.388H971.704V206.104C973.665 205.754 975.066 204.983 975.837 203.933C976.327 203.302 976.537 202.392 976.607 201.131H973.805V195.317H973.735ZM956.925 233.63V227.887H962.669V233.63H956.925Z" fill="#1B5A1D"/>
<path d="M1001.82 214.299L1007.71 216.19C1006.79 219.482 1005.32 221.934 1003.22 223.475C1001.12 225.016 998.46 225.856 995.238 225.856C991.245 225.856 987.953 224.525 985.362 221.794C982.77 219.062 981.51 215.35 981.51 210.587C981.51 205.614 982.77 201.692 985.362 198.89C987.953 196.088 991.315 194.757 995.588 194.757C999.3 194.757 1002.24 195.878 1004.55 198.049C1005.95 199.31 1006.93 201.201 1007.64 203.583L1001.61 205.054C1001.26 203.513 1000.49 202.252 999.37 201.341C998.25 200.431 996.849 200.01 995.238 200.01C992.996 200.01 991.175 200.781 989.845 202.392C988.514 204.003 987.743 206.594 987.743 210.167C987.743 213.949 988.444 216.681 989.774 218.292C991.105 219.902 992.926 220.743 995.098 220.743C996.709 220.743 998.109 220.253 999.23 219.202C1000.35 218.151 1001.33 216.54 1001.82 214.299Z" fill="#1B5A1D"/>
<path d="M1024.52 225.366V195.317H1033.62L1039.08 215.84L1044.48 195.317H1053.58V225.366H1047.91V201.691L1041.96 225.366H1036.14L1030.19 201.691V225.366H1024.52Z" fill="#1B5A1D"/>
<path d="M1059.4 225.366V195.317H1065.49V225.366H1059.4Z" fill="#1B5A1D"/>
<path d="M1071.3 225.366V195.318H1093.58V200.431H1077.33V207.085H1092.46V212.128H1077.33V220.323H1094.14V225.366H1071.3V225.366ZM1085.52 190.905H1081.88L1076.63 187.543H1083.07L1085.52 190.905ZM1083.07 192.726L1080.83 194.267H1076.77L1081.25 191.605H1084.89L1089.38 194.267H1085.31L1083.07 192.726Z" fill="#1B5A1D"/>
<path d="M1099.39 225.366V195.317H1105.27L1117.6 215.42V195.317H1123.28V225.366H1117.18L1105.06 205.754V225.366H1099.39Z" fill="#1B5A1D"/>
<path d="M1141.42 225.366V195.317H1147.3L1159.63 215.42V195.317H1165.3V225.366H1159.21L1147.09 205.754V225.366H1141.42Z" fill="#1B5A1D"/>
<path d="M1198.85 225.366H1192.27L1189.6 218.501H1177.56L1175.11 225.366H1168.66L1180.36 195.317H1186.8L1198.85 225.366ZM1187.64 213.458L1183.51 202.322L1179.45 213.458H1187.64Z" fill="#1B5A1D"/>
<path d="M1201.93 225.366V195.317H1211.04L1216.5 215.84L1221.9 195.317H1231V225.366H1225.33V201.691L1219.37 225.366H1213.56L1207.61 201.691V225.366H1201.93Z" fill="#1B5A1D"/>
</svg>
